<svg version="1.1" xmlns="http://www.w3.org/2000/svg" viewBox="-72.70648103600247 -6.679510631242262 141.32557711341207 16.623814007273456" fill="none" stroke="black" stroke-width="0.6%" vector-effect="non-scaling-stroke">
    <path d="M 64.55609 8.25065 L 67.6191 7.72675 L 67.6191 4.72898 L 59.91873 4.25919 L 61.1292 4.13505 L 62.059 3.80527 L 62.059 4.38977" />
    <path d="M 55.83463 8.63117 A 5 0.1928 180 0 0 64.55609 8.50241" />
    <path d="M 53.27459 8.69357 L 55.83463 8.63117" />
    <path d="M 43.49573 8.8082 A 5 0.1928 180 0 0 53.27459 8.7515" />
    <path d="M 28.57099 8.67846 L 43.49573 8.8082" />
    <path d="M 19.61512 8.13207 L 28.57099 8.67846 L 28.57099 5.68069 L 43.49573 5.81043 L 43.49573 8.8082" />
    <path d="M 12.73271 8.05091 L 19.61512 8.13207 L 19.61512 5.1343 L 28.57099 5.68069" />
    <path d="M 9.62472 7.97774 L 12.73271 8.05091 L 12.73271 5.05314 L 19.61512 5.1343" />
    <path d="M 1.77616 7.81928 A 5 0.1928 180 0 0 9.62472 7.97774" />
    <path d="M -0.8713 7.63206 L 1.77616 7.73706" />
    <path d="M -2.51668 7.52126 L -0.8713 7.63206 L -0.8713 4.6343 L 2.10793 4.75245" />
    <path d="M -5.17548 7.3422 A 5 0.1928 180 0 0 -5.18044 7.35079 A 5 0.1928 180 0 0 -2.51668 7.52126" />
    <path d="M -5.23077 7.33848 L -5.18044 7.34187" />
    <path d="M -7.28521 7.05077 L -5.23077 7.33848 L -5.23077 4.34071 L -5.17548 4.34443" />
    <path d="M -71.70648 4.54442 A 65 2.50645 180 0 0 -7.28521 7.05077" />
    <path d="M 61.1292 4.33304 L 61.1292 4.13505" />
    <path d="M 63.71119 5.39739 L 67.6191 4.72898" />
    <path d="M 60.69882 3.452 A 5 0.1928 0 0 1 64.51367 3.63931 A 5 0.1928 0 0 1 62.059 3.80527" />
    <path d="M 55.83463 5.6334 L 55.83463 8.63117" />
    <path d="M 63.71119 5.39739 A 5 0.1928 0 0 1 64.55609 5.50464 A 5 0.1928 0 0 1 55.83463 5.6334" />
    <path d="M 60.69882 3.452 L 57.54945 3.16019" />
    <path d="M 53.08047 5.70053 L 55.83463 5.6334" />
    <path d="M 54.30309 2.99016 A 5 0.1928 0 0 1 57.54945 3.16019" />
    <path d="M 53.08047 5.70053 A 5 0.1928 0 0 1 53.27459 5.75373 A 5 0.1928 0 0 1 43.49573 5.81043" />
    <path d="M 54.30309 2.99016 L 52.17668 2.88133 L 49.56811 2.80102" />
    <path d="M -17.04024 -0.92793 A 65 2.50645 0 0 1 -12.70648 -0.9491" />
    <path d="M -0.70648 -0.9491 A 65 2.50645 0 0 1 58.29352 1.54665 A 65 2.50645 0 0 1 49.56811 2.80102" />
    <path d="M -16.90344 -0.95133 L -16.90344 -0.92877" />
    <path d="M -17.04024 -0.92793 L -16.90344 -0.95133 A 5 0.1928 180 0 0 -12.8067 -1.14096 A 5 0.1928 180 0 0 -21.75906 -1.25905 L -22.71628 -1.31745 A 5 0.1928 180 0 0 -18.2726 -1.50905 L -18.2726 -1.33292" />
    <path d="M 9.62472 4.97997 L 12.73271 5.05314" />
    <path d="M 9.62472 4.97997 L 9.62472 7.97774" />
    <path d="M 9.62472 4.97997 A 5 0.1928 0 0 1 1.77616 4.82151 A 5 0.1928 0 0 1 2.10793 4.75245" />
    <path d="M -18.2726 -1.50905 A 5 0.1928 180 0 0 -27.81208 -1.58988 L -45.74263 -1.74576 L -48.99131 -1.66658 A 5 0.1928 180 0 0 -58.912 -1.63237 L -58.912 -1.42479" />
    <path d="M -2.51668 4.52349 L -0.8713 4.6343" />
    <path d="M -2.51668 4.52349 L -2.51668 7.52126" />
    <path d="M -2.51668 4.52349 A 5 0.1928 0 0 1 -5.18044 4.35303 L -5.18044 7.35079" />
    <path d="M -5.18044 4.35303 A 5 0.1928 0 0 1 -5.17548 4.34443" />
    <path d="M -58.912 -1.63237 A 5 0.1928 180 0 0 -56.82463 -1.47566 L -61.91689 -1.35155 L -65.50092 -0.73853 A 5 0.1928 180 0 0 -71.66299 -0.55101 L -71.66299 1.45497" />
    <path d="M -7.28521 4.053 L -5.23077 4.34071" />
    <path d="M -7.28521 4.053 L -7.28521 7.05077" />
    <path d="M -7.28521 4.053 A 65 2.50645 0 0 1 -71.70648 1.54665 L -71.70648 4.54442" />
    <path d="M -71.70648 1.54665 A 65 2.50645 0 0 1 -56.68538 -0.05588" />
    <path d="M -57.02542 -0.07663 L -56.68538 -0.05588" />
    <path d="M -57.02542 -0.07663 L -57.02542 -0.03998" />
    <path d="M -71.66299 -0.55101 A 5 0.1928 180 0 0 -62.79697 -0.42874 L -61.89674 -0.37382 A 5 0.1928 180 0 0 -66.19708 -0.18291 L -66.19708 0.53678" />
    <path d="M -62.79697 -0.42874 L -62.79697 -0.36558" />
    <path d="M -66.19708 -0.18291 A 5 0.1928 180 0 0 -57.02542 -0.07663" />
    <path d="M -65.79341 -0.49245 A 1.75 0.06748 180 0 0 -64.91299 -0.55101 A 1.75 0.06748 180 0 0 -68.41299 -0.55101 A 1.75 0.06748 180 0 0 -65.79341 -0.49245 Z" />
    <path d="M -58.15976 -0.24998 L -58.17227 -0.11501 L -61.2096 -0.04795 L -64.23441 -0.11585 L -64.2219 -0.25081 L -61.18457 -0.31787 L -58.15976 -0.24998 Z" />
    <path d="M -61.18457 -0.0485 L -61.18457 -0.31787" />
    <path d="M -64.2219 -0.11557 L -64.2219 -0.25081" />
    <path d="M 2.85688 4.28596 L 2.84437 4.42092 L -0.19296 4.48799 L -3.21777 4.42009 L -3.20526 4.28513 L -0.16793 4.21806 L 2.85688 4.28596 Z" />
    <path d="M -0.16793 4.48744 L -0.16793 4.21806" />
    <path d="M -3.20526 4.42037 L -3.20526 4.28513" />
    <path d="M 7.64573 4.88007 A 1.75 0.06748 180 0 0 8.52616 4.82151 A 1.75 0.06748 180 0 0 5.02616 4.82151 A 1.75 0.06748 180 0 0 7.64573 4.88007 Z" />
    <path d="M 51.51068 5.70005 L 51.49816 5.83501 L 48.46083 5.90208 L 45.43602 5.83418 L 45.44854 5.69922 L 48.48586 5.63215 L 51.51068 5.70005 Z" />
    <path d="M 48.48586 5.90152 L 48.48586 5.63215" />
    <path d="M 45.44854 5.83446 L 45.44854 5.69922" />
    <path d="M -51.07343 -1.71282 L -51.08594 -1.57786 L -54.12327 -1.5108 L -57.14808 -1.5787 L -57.13557 -1.71366 L -54.09824 -1.78072 L -51.07343 -1.71282 Z" />
    <path d="M -54.09824 -1.51135 L -54.09824 -1.78072" />
    <path d="M -57.13557 -1.57841 L -57.13557 -1.71366" />
    <path d="M -22.40302 -1.45049 A 1.75 0.06748 180 0 0 -21.5226 -1.50905 A 1.75 0.06748 180 0 0 -25.0226 -1.50905 A 1.75 0.06748 180 0 0 -22.40302 -1.45049 Z" />
    <path d="M -14.76937 -1.20802 L -14.78189 -1.07306 L -17.81921 -1.006 L -20.84402 -1.07389 L -20.83151 -1.20886 L -17.79418 -1.27592 L -14.76937 -1.20802 Z" />
    <path d="M -17.79418 -1.00655 L -17.79418 -1.27592" />
    <path d="M -20.83151 -1.07361 L -20.83151 -1.20886" />
    <path d="M 62.59342 5.43757 L 62.5809 5.57254 L 59.54357 5.6396 L 56.51876 5.5717 L 56.53128 5.43674 L 59.5686 5.36968 L 62.59342 5.43757 Z" />
    <path d="M 59.5686 5.63905 L 59.5686 5.36968" />
    <path d="M 56.53128 5.57198 L 56.53128 5.43674" />
    <path d="M 55.59439 3.10376 L 55.58188 3.23873 L 52.54455 3.30579 L 49.51974 3.23789 L 49.53225 3.10293 L 52.56958 3.03586 L 55.59439 3.10376 Z" />
    <path d="M 52.56958 3.30524 L 52.56958 3.03586" />
    <path d="M 49.53225 3.23817 L 49.53225 3.10293" />
    <path d="M 60.38324 3.69787 A 1.75 0.06748 180 0 0 61.26367 3.63931 A 1.75 0.06748 180 0 0 57.76367 3.63931 A 1.75 0.06748 180 0 0 60.38324 3.69787 Z" />
    <path d="M -0.70648 1.54665 A 6 0.23137 0 0 1 -12.70648 1.54665" />
    <path d="M -9.68788 -5.64892 A 6 0.23137 0 0 1 -0.70648 -5.44814 L -0.70648 1.54665" />
    <path d="M -0.70648 -5.44814 A 6 0.23137 0 0 1 -12.70648 -5.44814 L -12.70648 1.54665" />
    <path d="M -12.70648 -5.44814 A 6 0.23137 0 0 1 -9.68788 -5.64892" />
    <path d="M -8.76862 -5.58702 A 4.15 0.16003 0 0 1 -2.55648 -5.44814 A 4.15 0.16003 0 0 1 -10.85648 -5.44814 A 4.15 0.16003 0 0 1 -8.76862 -5.58702 Z" />
    <path d="M 64.51367 3.63931 L 64.51367 4.53953" />
    <path d="M 64.55609 5.50464 L 64.55609 8.50241" />
    <path d="M 53.27459 5.75373 L 53.27459 8.7515" />
    <path d="M 58.29352 1.54665 L 58.29352 3.22913" />
    <path d="M -12.8067 -1.14096 L -12.8067 -0.94874" />
    <path d="M 1.77616 4.82151 L 1.77616 7.81928" />
</svg>