<svg version="1.1" xmlns="http://www.w3.org/2000/svg" viewBox="-72.7064810360025 -5.546145122479104 141.32557711341207 13.711174909345186" fill="none" stroke="black" stroke-width="0.6%" vector-effect="non-scaling-stroke">
    <path d="M 64.55609 6.60861 L 67.6191 6.18836 L 67.6191 3.1898 L 59.91873 2.81295 L 61.1292 2.71336 L 62.059 2.44883 L 62.059 2.91769" />
    <path d="M 55.83463 6.91385 A 5 0.15466 180 0 0 64.55609 6.81056" />
    <path d="M 53.27459 6.9639 L 55.83463 6.91385" />
    <path d="M 43.49573 7.05586 A 5 0.15466 180 0 0 53.27459 7.01037" />
    <path d="M 28.57099 6.95178 L 43.49573 7.05586" />
    <path d="M 19.61512 6.51349 L 28.57099 6.95178 L 28.57099 3.95321 L 43.49573 4.05729 L 43.49573 7.05586" />
    <path d="M 12.73271 6.44838 L 19.61512 6.51349 L 19.61512 3.51492 L 28.57099 3.95321" />
    <path d="M 9.62472 6.38969 L 12.73271 6.44838 L 12.73271 3.44982 L 19.61512 3.51492" />
    <path d="M 1.77616 6.26258 A 5 0.15466 180 0 0 9.62472 6.38969" />
    <path d="M -0.8713 6.1124 L 1.77616 6.19663" />
    <path d="M -2.51668 6.02352 L -0.8713 6.1124 L -0.8713 3.11384 L 2.10793 3.20862" />
    <path d="M -5.17548 5.87989 A 5 0.15466 180 0 0 -5.18044 5.88678 A 5 0.15466 180 0 0 -2.51668 6.02352" />
    <path d="M -5.23077 5.8769 L -5.18044 5.87962" />
    <path d="M -7.28521 5.64612 L -5.23077 5.8769 L -5.23077 2.87834 L -5.17548 2.88132" />
    <path d="M -71.70648 3.63562 A 65 2.01058 180 0 0 -7.28521 5.64612" />
    <path d="M 61.1292 2.87219 L 61.1292 2.71336" />
    <path d="M 63.71119 3.72597 L 67.6191 3.1898" />
    <path d="M 60.69882 2.16545 A 5 0.15466 360 0 1 64.51367 2.31571 A 5 0.15466 360 0 1 62.059 2.44883" />
    <path d="M 55.83463 3.91528 L 55.83463 6.91385" />
    <path d="M 63.71119 3.72597 A 5 0.15466 360 0 1 64.55609 3.81199 A 5 0.15466 360 0 1 55.83463 3.91528" />
    <path d="M 60.69882 2.16545 L 57.54945 1.93137" />
    <path d="M 53.08047 3.96913 L 55.83463 3.91528" />
    <path d="M 54.30309 1.79498 A 5 0.15466 360 0 1 57.54945 1.93137" />
    <path d="M 53.08047 3.96913 A 5 0.15466 360 0 1 53.27459 4.0118 A 5 0.15466 360 0 1 43.49573 4.05729" />
    <path d="M 54.30309 1.79498 L 52.17668 1.70768 L 49.56811 1.64326" />
    <path d="M -17.04024 -1.34795 A 65 2.01058 360 0 1 -12.70648 -1.36494" />
    <path d="M -0.70648 -1.36494 A 65 2.01058 360 0 1 58.29352 0.63706 A 65 2.01058 360 0 1 49.56811 1.64326" />
    <path d="M -16.90344 -1.36672 L -16.90344 -1.34863" />
    <path d="M -17.04024 -1.34795 L -16.90344 -1.36672 A 5 0.15466 180 0 0 -12.8067 -1.51883 A 5 0.15466 180 0 0 -21.75906 -1.61356 L -22.71628 -1.66041 A 5 0.15466 180 0 0 -18.2726 -1.81411 L -18.2726 -1.67282" />
    <path d="M 9.62472 3.39112 L 12.73271 3.44982" />
    <path d="M 9.62472 3.39112 L 9.62472 6.38969" />
    <path d="M 9.62472 3.39112 A 5 0.15466 360 0 1 1.77616 3.26402 A 5 0.15466 360 0 1 2.10793 3.20862" />
    <path d="M -18.2726 -1.81411 A 5 0.15466 180 0 0 -27.81208 -1.87894 L -45.74263 -2.00398 L -48.99131 -1.94047 A 5 0.15466 180 0 0 -58.912 -1.91303 L -58.912 -1.74651" />
    <path d="M -2.51668 3.02496 L -0.8713 3.11384" />
    <path d="M -2.51668 3.02496 L -2.51668 6.02352" />
    <path d="M -2.51668 3.02496 A 5 0.15466 360 0 1 -5.18044 2.88822 L -5.18044 5.88678" />
    <path d="M -5.18044 2.88822 A 5 0.15466 360 0 1 -5.17548 2.88132" />
    <path d="M -58.912 -1.91303 A 5 0.15466 180 0 0 -56.82463 -1.78732 L -61.91689 -1.68776 L -65.50092 -1.19603 A 5 0.15466 180 0 0 -71.66299 -1.0456 L -71.66299 0.56351" />
    <path d="M -7.28521 2.64755 L -5.23077 2.87834" />
    <path d="M -7.28521 2.64755 L -7.28521 5.64612" />
    <path d="M -7.28521 2.64755 A 65 2.01058 360 0 1 -71.70648 0.63706 L -71.70648 3.63562" />
    <path d="M -71.70648 0.63706 A 65 2.01058 360 0 1 -56.68538 -0.64843" />
    <path d="M -57.02542 -0.66507 L -56.68538 -0.64843" />
    <path d="M -57.02542 -0.66507 L -57.02542 -0.63567" />
    <path d="M -71.66299 -1.0456 A 5 0.15466 180 0 0 -62.79697 -0.94752 L -61.89674 -0.90347 A 5 0.15466 180 0 0 -66.19708 -0.75033 L -66.19708 -0.17302" />
    <path d="M -62.79697 -0.94752 L -62.79697 -0.89686" />
    <path d="M -66.19708 -0.75033 A 5 0.15466 180 0 0 -57.02542 -0.66507" />
    <path d="M -65.79341 -0.99863 A 1.75 0.05413 180 0 0 -64.91299 -1.0456 A 1.75 0.05413 180 0 0 -68.41299 -1.0456 A 1.75 0.05413 180 0 0 -65.79341 -0.99863 Z" />
    <path d="M -58.15976 -0.80412 L -58.17227 -0.69586 L -61.2096 -0.64207 L -64.23441 -0.69653 L -64.2219 -0.8048 L -61.18457 -0.85859 L -58.15976 -0.80412 Z" />
    <path d="M -61.18457 -0.64251 L -61.18457 -0.85859" />
    <path d="M -64.2219 -0.69631 L -64.2219 -0.8048" />
    <path d="M 2.85688 2.83442 L 2.84437 2.94268 L -0.19296 2.99648 L -3.21777 2.94201 L -3.20526 2.83375 L -0.16793 2.77996 L 2.85688 2.83442 Z" />
    <path d="M -0.16793 2.99603 L -0.16793 2.77996" />
    <path d="M -3.20526 2.94224 L -3.20526 2.83375" />
    <path d="M 7.64573 3.31099 A 1.75 0.05413 180 0 0 8.52616 3.26402 A 1.75 0.05413 180 0 0 5.02616 3.26402 A 1.75 0.05413 180 0 0 7.64573 3.31099 Z" />
    <path d="M 51.51068 3.96875 L 51.49816 4.07701 L 48.46083 4.1308 L 45.43602 4.07634 L 45.44854 3.96808 L 48.48586 3.91428 L 51.51068 3.96875 Z" />
    <path d="M 48.48586 4.13036 L 48.48586 3.91428" />
    <path d="M 45.44854 4.07656 L 45.44854 3.96808" />
    <path d="M -51.07343 -1.97756 L -51.08594 -1.8693 L -54.12327 -1.8155 L -57.14808 -1.86997 L -57.13557 -1.97823 L -54.09824 -2.03203 L -51.07343 -1.97756 Z" />
    <path d="M -54.09824 -1.81595 L -54.09824 -2.03203" />
    <path d="M -57.13557 -1.86974 L -57.13557 -1.97823" />
    <path d="M -22.40302 -1.76713 A 1.75 0.05413 180 0 0 -21.5226 -1.81411 A 1.75 0.05413 180 0 0 -25.0226 -1.81411 A 1.75 0.05413 180 0 0 -22.40302 -1.76713 Z" />
    <path d="M -14.76937 -1.57263 L -14.78189 -1.46437 L -17.81921 -1.41057 L -20.84402 -1.46504 L -20.83151 -1.5733 L -17.79418 -1.6271 L -14.76937 -1.57263 Z" />
    <path d="M -17.79418 -1.41102 L -17.79418 -1.6271" />
    <path d="M -20.83151 -1.46481 L -20.83151 -1.5733" />
    <path d="M 62.59342 3.7582 L 62.5809 3.86646 L 59.54357 3.92025 L 56.51876 3.86579 L 56.53128 3.75753 L 59.5686 3.70373 L 62.59342 3.7582 Z" />
    <path d="M 59.5686 3.91981 L 59.5686 3.70373" />
    <path d="M 56.53128 3.86601 L 56.53128 3.75753" />
    <path d="M 55.59439 1.88611 L 55.58188 1.99437 L 52.54455 2.04817 L 49.51974 1.9937 L 49.53225 1.88544 L 52.56958 1.83164 L 55.59439 1.88611 Z" />
    <path d="M 52.56958 2.04772 L 52.56958 1.83164" />
    <path d="M 49.53225 1.99392 L 49.53225 1.88544" />
    <path d="M 60.38324 2.36268 A 1.75 0.05413 180 0 0 61.26367 2.31571 A 1.75 0.05413 180 0 0 57.76367 2.31571 A 1.75 0.05413 180 0 0 60.38324 2.36268 Z" />
    <path d="M -0.70648 0.63706 A 6 0.18559 360 0 1 -12.70648 0.63706" />
    <path d="M -9.68788 -4.52161 A 6 0.18559 360 0 1 -0.70648 -4.36055 L -0.70648 0.63706" />
    <path d="M -0.70648 -4.36055 A 6 0.18559 360 0 1 -12.70648 -4.36055 L -12.70648 0.63706" />
    <path d="M -12.70648 -4.36055 A 6 0.18559 360 0 1 -9.68788 -4.52161" />
    <path d="M -8.81831 -4.47464 A 4.25 0.13146 360 0 1 -2.45648 -4.36055 A 4.25 0.13146 360 0 1 -10.95648 -4.36055 A 4.25 0.13146 360 0 1 -8.81831 -4.47464 Z" />
    <path d="M 64.51367 2.31571 L 64.51367 3.03782" />
    <path d="M 64.55609 3.81199 L 64.55609 6.81056" />
    <path d="M 53.27459 4.0118 L 53.27459 7.01037" />
    <path d="M 58.29352 0.63706 L 58.29352 1.98668" />
    <path d="M -12.8067 -1.51883 L -12.8067 -1.36465" />
    <path d="M 1.77616 3.26402 L 1.77616 6.26258" />
</svg>