<svg version="1.1" xmlns="http://www.w3.org/2000/svg" viewBox="-72.70648103600249 -9.508129253568484 141.32557711341207 23.89308155381037" fill="none" stroke="black" stroke-width="0.6%" vector-effect="non-scaling-stroke">
    <path d="M 64.55609 12.3488 L 67.6191 11.56622 L 67.6191 8.5712 L 59.91873 7.86945 L 61.1292 7.684 L 62.059 7.19139 L 62.059 8.0645" />
    <path d="M 55.83463 12.91721 A 5 0.288 180 0 0 64.55609 12.72486" />
    <path d="M 53.27459 13.01041 L 55.83463 12.91721" />
    <path d="M 43.49573 13.18165 A 5 0.288 180 0 0 53.27459 13.09695" />
    <path d="M 28.57099 12.98784 L 43.49573 13.18165" />
    <path d="M 19.61512 12.17167 L 28.57099 12.98784 L 28.57099 9.99282 L 43.49573 10.18663 L 43.49573 13.18165" />
    <path d="M 12.73271 12.05043 L 19.61512 12.17167 L 19.61512 9.17665 L 28.57099 9.99282" />
    <path d="M 9.62472 11.94113 L 12.73271 12.05043 L 12.73271 9.05541 L 19.61512 9.17665" />
    <path d="M 1.77616 11.70444 A 5 0.288 180 0 0 9.62472 11.94113" />
    <path d="M -0.8713 11.42478 L 1.77616 11.58162" />
    <path d="M -2.51668 11.25926 L -0.8713 11.42478 L -0.8713 8.42976 L 2.10793 8.60626" />
    <path d="M -5.17548 10.9918 A 5 0.288 180 0 0 -5.18044 11.00463 A 5 0.288 180 0 0 -2.51668 11.25926" />
    <path d="M -5.23077 10.98623 L -5.18044 10.9913" />
    <path d="M -7.28521 10.55647 L -5.23077 10.98623 L -5.23077 7.99121 L -5.17548 7.99678" />
    <path d="M -71.70648 6.81257 A 65 3.74405 180 0 0 -7.28521 10.55647" />
    <path d="M -71.66293 3.68052 A 5 0.288 360 0 1 -71.66299 3.67917" />
    <path d="M 61.1292 7.97976 L 61.1292 7.684" />
    <path d="M 63.71119 9.56965 L 67.6191 8.5712" />
    <path d="M 60.69882 6.6637 A 5 0.288 360 0 1 64.51367 6.9435 A 5 0.288 360 0 1 62.059 7.19139" />
    <path d="M 55.83463 9.92219 L 55.83463 12.91721" />
    <path d="M 63.71119 9.56965 A 5 0.288 360 0 1 64.55609 9.72985 A 5 0.288 360 0 1 55.83463 9.92219" />
    <path d="M 60.69882 6.6637 L 57.54945 6.22779" />
    <path d="M 53.08047 10.02246 L 55.83463 9.92219" />
    <path d="M 54.30309 5.97381 A 5 0.288 360 0 1 57.54945 6.22779" />
    <path d="M 53.08047 10.02246 A 5 0.288 360 0 1 53.27459 10.10193 A 5 0.288 360 0 1 43.49573 10.18663" />
    <path d="M 54.30309 5.97381 L 52.17668 5.81124 L 49.56811 5.69128" />
    <path d="M -17.04024 0.12112 A 65 3.74405 360 0 1 -12.70648 0.08949" />
    <path d="M -0.70648 0.08949 A 65 3.74405 360 0 1 58.29352 3.81755 A 65 3.74405 360 0 1 49.56811 5.69128" />
    <path d="M -16.90344 0.08617 L -16.90344 0.11986" />
    <path d="M -17.04024 0.12112 L -16.90344 0.08617 A 5 0.288 180 0 0 -12.8067 -0.19709 A 5 0.288 180 0 0 -21.75906 -0.37349 L -22.71628 -0.46073 A 5 0.288 180 0 0 -18.2726 -0.74694 L -18.2726 -0.48384" />
    <path d="M 9.62472 8.94611 L 12.73271 9.05541" />
    <path d="M 9.62472 8.94611 L 9.62472 11.94113" />
    <path d="M 9.62472 8.94611 A 5 0.288 360 0 1 1.77616 8.70942 A 5 0.288 360 0 1 2.10793 8.60626" />
    <path d="M -18.2726 -0.74694 A 5 0.288 180 0 0 -27.81208 -0.86767 L -45.74263 -1.10052 L -48.99131 -0.98224 A 5 0.288 180 0 0 -58.912 -0.93115 L -58.912 -0.62106" />
    <path d="M -2.51668 8.26424 L -0.8713 8.42976" />
    <path d="M -2.51668 8.26424 L -2.51668 11.25926" />
    <path d="M -2.51668 8.26424 A 5 0.288 360 0 1 -5.18044 8.00961 L -5.18044 11.00463" />
    <path d="M -5.18044 8.00961 A 5 0.288 360 0 1 -5.17548 7.99678" />
    <path d="M -58.912 -0.93115 A 5 0.288 180 0 0 -56.82463 -0.69706 L -61.91689 -0.51166 L -65.50092 0.40403 A 5 0.288 180 0 0 -71.66299 0.68415 L -71.66299 3.67917" />
    <path d="M -7.28521 7.56145 L -5.23077 7.99121" />
    <path d="M -7.28521 7.56145 L -7.28521 10.55647" />
    <path d="M -7.28521 7.56145 A 65 3.74405 360 0 1 -71.70648 3.81755 L -71.70648 6.81257" />
    <path d="M -71.70648 3.81755 A 65 3.74405 360 0 1 -56.68538 1.42375" />
    <path d="M -57.02542 1.39276 L -56.68538 1.42375" />
    <path d="M -57.02542 1.39276 L -57.02542 1.44751" />
    <path d="M -71.66299 0.68415 A 5 0.288 180 0 0 -62.79697 0.86679 L -61.89674 0.94883 A 5 0.288 180 0 0 -66.19708 1.234 L -66.19708 2.30904" />
    <path d="M -62.79697 0.86679 L -62.79697 0.96114" />
    <path d="M -66.19708 1.234 A 5 0.288 180 0 0 -57.02542 1.39276" />
    <path d="M -65.79341 0.77162 A 1.75 0.1008 180 0 0 -64.91299 0.68415 A 1.75 0.1008 180 0 0 -68.41299 0.68415 A 1.75 0.1008 180 0 0 -65.79341 0.77162 Z" />
    <path d="M -58.15976 1.13382 L -58.17227 1.33542 L -61.2096 1.4356 L -64.23441 1.33417 L -64.2219 1.13257 L -61.18457 1.0324 L -58.15976 1.13382 Z" />
    <path d="M -61.18457 1.43477 L -61.18457 1.0324" />
    <path d="M -64.2219 1.33459 L -64.2219 1.13257" />
    <path d="M 2.85688 7.90943 L 2.84437 8.11104 L -0.19296 8.21121 L -3.21777 8.10979 L -3.20526 7.90819 L -0.16793 7.80801 L 2.85688 7.90943 Z" />
    <path d="M -0.16793 8.21039 L -0.16793 7.80801" />
    <path d="M -3.20526 8.11021 L -3.20526 7.90819" />
    <path d="M 7.64573 8.7969 A 1.75 0.1008 180 0 0 8.52616 8.70942 A 1.75 0.1008 180 0 0 5.02616 8.70942 A 1.75 0.1008 180 0 0 7.64573 8.7969 Z" />
    <path d="M 51.51068 10.02175 L 51.49816 10.22335 L 48.46083 10.32352 L 45.43602 10.2221 L 45.44854 10.0205 L 48.48586 9.92032 L 51.51068 10.02175 Z" />
    <path d="M 48.48586 10.3227 L 48.48586 9.92032" />
    <path d="M 45.44854 10.22252 L 45.44854 10.0205" />
    <path d="M -51.07343 -1.05132 L -51.08594 -0.84972 L -54.12327 -0.74954 L -57.14808 -0.85097 L -57.13557 -1.05257 L -54.09824 -1.15275 L -51.07343 -1.05132 Z" />
    <path d="M -54.09824 -0.75037 L -54.09824 -1.15275" />
    <path d="M -57.13557 -0.85055 L -57.13557 -1.05257" />
    <path d="M -22.40302 -0.65947 A 1.75 0.1008 180 0 0 -21.5226 -0.74694 A 1.75 0.1008 180 0 0 -25.0226 -0.74694 A 1.75 0.1008 180 0 0 -22.40302 -0.65947 Z" />
    <path d="M -14.76937 -0.29727 L -14.78189 -0.09567 L -17.81921 0.00451 L -20.84402 -0.09692 L -20.83151 -0.29852 L -17.79418 -0.39869 L -14.76937 -0.29727 Z" />
    <path d="M -17.79418 0.00368 L -17.79418 -0.39869" />
    <path d="M -20.83151 -0.0965 L -20.83151 -0.29852" />
    <path d="M 62.59342 9.62967 L 62.5809 9.83127 L 59.54357 9.93145 L 56.51876 9.83002 L 56.53128 9.62842 L 59.5686 9.52824 L 62.59342 9.62967 Z" />
    <path d="M 59.5686 9.93062 L 59.5686 9.52824" />
    <path d="M 56.53128 9.83044 L 56.53128 9.62842" />
    <path d="M 55.59439 6.14351 L 55.58188 6.34511 L 52.54455 6.44529 L 49.51974 6.34386 L 49.53225 6.14226 L 52.56958 6.04209 L 55.59439 6.14351 Z" />
    <path d="M 52.56958 6.44446 L 52.56958 6.04209" />
    <path d="M 49.53225 6.34428 L 49.53225 6.14226" />
    <path d="M 60.38324 7.03097 A 1.75 0.1008 180 0 0 61.26367 6.9435 A 1.75 0.1008 180 0 0 57.76367 6.9435 A 1.75 0.1008 180 0 0 60.38324 7.03097 Z" />
    <path d="M -0.70648 3.81755 A 6 0.3456 360 0 1 -12.70648 3.81755" />
    <path d="M -9.68788 -8.46244 A 6 0.3456 360 0 1 -0.70648 -8.16252 L -0.70648 3.81755" />
    <path d="M -0.70648 -8.16252 A 6 0.3456 360 0 1 -12.70648 -8.16252 L -12.70648 3.81755" />
    <path d="M -12.70648 -8.16252 A 6 0.3456 360 0 1 -9.68788 -8.46244" />
    <path d="M -8.76862 -8.36997 A 4.15 0.23904 360 0 1 -2.55648 -8.16252 A 4.15 0.23904 360 0 1 -10.85648 -8.16252 A 4.15 0.23904 360 0 1 -8.76862 -8.36997 Z" />
    <path d="M 64.51367 6.9435 L 64.51367 8.2882" />
    <path d="M 64.55609 9.72985 L 64.55609 12.72486" />
    <path d="M 53.27459 10.10193 L 53.27459 13.09695" />
    <path d="M 58.29352 3.81755 L 58.29352 6.33078" />
    <path d="M -12.8067 -0.19709 L -12.8067 0.09003" />
    <path d="M 1.77616 8.70942 L 1.77616 11.70444" />
</svg>